<svg xmlns="http://www.w3.org/2000/svg" width="29.921" height="25.902" viewBox="0 0 29.921 25.902">
  <g id="Group_7" data-name="Group 7" transform="translate(-1912 744)">
    <path id="Path_3" data-name="Path 3" d="M506,191.471a14.224,14.224,0,0,1,.364-1.463,3.634,3.634,0,0,1,2.029-2.286,2.874,2.874,0,0,1,3.413,1.062,5.693,5.693,0,0,1,0,6.505,2.932,2.932,0,0,1-5.057-.4,5.241,5.241,0,0,1-.694-2.056,1.314,1.314,0,0,0-.053-.191Z" transform="translate(1406 -922.874)" fill="#fff"/>
    <path id="Path_4" data-name="Path 4" d="M567.67,226.27a9.55,9.55,0,0,1,6.88,2.528,7.4,7.4,0,0,1,1.414,1.883c.355.668.8,1.3,1.084,1.993a6.315,6.315,0,0,1,.158,4.916,3.65,3.65,0,0,1-1.584,1.851,2.8,2.8,0,0,1-2.943-.109c-.862-.489-1.707-1.014-2.532-1.563a4.33,4.33,0,0,0-2.416-.6,4.123,4.123,0,0,0-2.21.717c-.8.462-1.585.952-2.4,1.382a2.842,2.842,0,0,1-3.1-.026,3.775,3.775,0,0,1-1.622-2.475,7.1,7.1,0,0,1,1.259-5.506c.307-.461.583-.943.9-1.394a8.271,8.271,0,0,1,5.509-3.409C566.692,226.342,567.326,226.308,567.67,226.27Z" transform="translate(1358.755 -957.908)" fill="#fff"/>
    <path id="Path_5" data-name="Path 5" d="M662.779,103.22a6.523,6.523,0,0,1,1.4-4.119,3.584,3.584,0,0,1,6.07.267A7.051,7.051,0,0,1,671.3,104.8,5.9,5.9,0,0,1,669.712,108a3.5,3.5,0,0,1-5.4-.2A6.854,6.854,0,0,1,662.779,103.22Z" transform="translate(1264.278 -841.549)" fill="#fff"/>
    <path id="Path_6" data-name="Path 6" d="M575.454,103.367a6.67,6.67,0,0,1-1.519,4.4,3.559,3.559,0,0,1-3.125,1.385,3.712,3.712,0,0,1-2.531-1.413,6.206,6.206,0,0,1-1.406-3.249,7.142,7.142,0,0,1,.856-4.731,4.123,4.123,0,0,1,2.6-2.107,3.467,3.467,0,0,1,3.589,1.289A6.645,6.645,0,0,1,575.454,103.367Z" transform="translate(1351.051 -841.548)" fill="#fff"/>
    <path id="Path_7" data-name="Path 7" d="M753.256,192.091a5.419,5.419,0,0,1-.944,3.139,2.909,2.909,0,0,1-4.952-.006,5.384,5.384,0,0,1-.913-3.632,4.914,4.914,0,0,1,1.06-2.823,2.891,2.891,0,0,1,4.809.189A5.434,5.434,0,0,1,753.256,192.091Z" transform="translate(1188.665 -922.927)" fill="#fff"/>
  </g>
</svg>
