<svg xmlns="http://www.w3.org/2000/svg" xmlns:xlink="http://www.w3.org/1999/xlink" width="29" height="24" viewBox="0 0 29 24">
  <defs>
    <clipPath id="clip-path">
      <rect id="Rectangle_86" data-name="Rectangle 86" width="29" height="24" transform="translate(-2 45.991)" fill="none"/>
    </clipPath>
  </defs>
  <g id="twitter" transform="translate(2 -45.991)">
    <g id="Mask_Group_28" data-name="Mask Group 28" clip-path="url(#clip-path)">
      <g id="Group_22" data-name="Group 22" transform="translate(0 48)">
        <path id="Path_11" data-name="Path 11" d="M25.137,50.418a10.744,10.744,0,0,1-2.969.814,5.124,5.124,0,0,0,2.267-2.848,10.3,10.3,0,0,1-3.268,1.247,5.153,5.153,0,0,0-8.914,3.524,5.306,5.306,0,0,0,.119,1.175A14.586,14.586,0,0,1,1.75,48.939a5.155,5.155,0,0,0,1.584,6.887,5.089,5.089,0,0,1-2.328-.635v.057a5.177,5.177,0,0,0,4.129,5.063,5.144,5.144,0,0,1-1.351.17,4.556,4.556,0,0,1-.976-.088,5.2,5.2,0,0,0,4.815,3.59,10.354,10.354,0,0,1-6.389,2.2A9.651,9.651,0,0,1,0,66.111a14.508,14.508,0,0,0,7.905,2.313A14.566,14.566,0,0,0,22.573,53.759c0-.228-.008-.448-.019-.666A10.28,10.28,0,0,0,25.137,50.418Z" transform="translate(0 -48)" fill="#fff"/>
      </g>
    </g>
  </g>
</svg>
