<svg xmlns="http://www.w3.org/2000/svg" width="29" height="24" viewBox="0 0 29 24">
  <g id="instagram" transform="translate(3.551 1.009)">
    <g id="Component_1_1" data-name="Component 1 – 1" transform="translate(-3.551 -1.009)">
      <path id="Path_8" data-name="Path 8" d="M21.724,6.272a7.8,7.8,0,0,0-.5-2.588A5.465,5.465,0,0,0,18.106.563a7.815,7.815,0,0,0-2.588-.5C14.376.013,14.014,0,11.117,0s-3.259.013-4.4.063a7.8,7.8,0,0,0-2.588.5A5.205,5.205,0,0,0,2.241,1.792,5.252,5.252,0,0,0,1.011,3.68a7.816,7.816,0,0,0-.5,2.588c-.054,1.142-.067,1.5-.067,4.4s.013,3.259.063,4.4a7.8,7.8,0,0,0,.5,2.588,5.464,5.464,0,0,0,3.121,3.121,7.816,7.816,0,0,0,2.588.5c1.138.05,1.5.063,4.4.063s3.259-.012,4.4-.063a7.793,7.793,0,0,0,2.588-.5,5.457,5.457,0,0,0,3.122-3.121,7.821,7.821,0,0,0,.5-2.588c.05-1.138.063-1.5.063-4.4s0-3.259-.054-4.4ZM19.8,14.982a5.847,5.847,0,0,1-.367,1.98,3.539,3.539,0,0,1-2.025,2.025,5.868,5.868,0,0,1-1.98.367c-1.125.05-1.463.063-4.309.063s-3.188-.012-4.309-.063a5.844,5.844,0,0,1-1.98-.367,3.283,3.283,0,0,1-1.225-.8,3.317,3.317,0,0,1-.8-1.225,5.869,5.869,0,0,1-.367-1.98c-.05-1.125-.063-1.463-.063-4.309s.012-3.188.063-4.309a5.844,5.844,0,0,1,.367-1.98,3.243,3.243,0,0,1,.8-1.225,3.312,3.312,0,0,1,1.225-.8A5.872,5.872,0,0,1,6.817,2c1.125-.05,1.463-.063,4.309-.063s3.188.013,4.309.063a5.847,5.847,0,0,1,1.98.367,3.28,3.28,0,0,1,1.225.8,3.316,3.316,0,0,1,.8,1.225,5.871,5.871,0,0,1,.367,1.98c.05,1.125.063,1.463.063,4.309s-.013,3.18-.063,4.305Zm0,0" transform="translate(3.551 1.009)" fill="#fff"/>
      <path id="Path_9" data-name="Path 9" d="M130.429,124.5a5.48,5.48,0,1,0,5.48,5.48A5.482,5.482,0,0,0,130.429,124.5Zm0,9.035a3.555,3.555,0,1,1,3.555-3.555A3.555,3.555,0,0,1,130.429,133.535Zm0,0" transform="translate(-115.76 -118.303)" fill="#fff"/>
      <path id="Path_10" data-name="Path 10" d="M365.009,89.881a1.279,1.279,0,1,1-1.28-1.279A1.28,1.28,0,0,1,365.009,89.881Zm0,0" transform="translate(-343.363 -83.9)" fill="#fff"/>
      <rect id="Rectangle_87" data-name="Rectangle 87" width="29" height="24" fill="none"/>
    </g>
  </g>
</svg>
