<svg xmlns="http://www.w3.org/2000/svg" width="116.467" height="100.825" viewBox="0 0 116.467 100.825">
  <g id="Group_43" data-name="Group 43" transform="translate(-1912 744)">
    <path id="Path_3" data-name="Path 3" d="M506,202.915a55.369,55.369,0,0,1,1.416-5.7c1.431-3.987,3.843-7.224,7.9-8.9,4.695-1.938,9.777-.322,13.284,4.135,5.3,6.735,5.3,18.581,0,25.322-5.626,7.16-14.9,6.422-19.686-1.568a20.4,20.4,0,0,1-2.7-8,5.088,5.088,0,0,0-.208-.743Z" transform="translate(1406 -897.882)" fill="#fff"/>
    <path id="Path_4" data-name="Path 4" d="M594.875,226.27c10.874.16,19.612,2.962,26.781,9.841a28.789,28.789,0,0,1,5.5,7.331c1.383,2.6,3.106,5.052,4.219,7.758,2.572,6.252,3.214,12.675.616,19.134a14.207,14.207,0,0,1-6.165,7.206c-3.886,2.243-7.761,1.67-11.454-.424-3.357-1.9-6.644-3.945-9.857-6.084-2.894-1.927-6.046-2.268-9.4-2.354-3.274-.085-5.937,1.249-8.6,2.791-3.113,1.8-6.17,3.707-9.351,5.379-3.989,2.1-8.079,2.57-12.06-.1a14.693,14.693,0,0,1-6.314-9.634c-1.587-7.854.555-14.9,4.9-21.431,1.195-1.793,2.271-3.669,3.516-5.425,5.273-7.436,12.57-11.67,21.445-13.269C591.066,226.549,593.536,226.418,594.875,226.27Z" transform="translate(1373.273 -922.149)" fill="#fff"/>
    <path id="Path_5" data-name="Path 5" d="M662.779,119.621a25.389,25.389,0,0,1,5.434-16.035c6.866-8.44,17.473-7.97,23.626,1.037,4.4,6.444,5.466,13.6,4.1,21.168a22.972,22.972,0,0,1-6.168,12.419c-6.323,6.393-15.162,6.05-21.028-.782C664.874,132.926,662.793,126.909,662.779,119.621Z" transform="translate(1307.83 -841.549)" fill="#fff"/>
    <path id="Path_6" data-name="Path 6" d="M600.524,120.2c-.115,6.349-1.692,12.214-5.914,17.126-3.179,3.7-7.136,5.835-12.165,5.389-4.084-.362-7.252-2.465-9.852-5.5a24.155,24.155,0,0,1-5.471-12.647,27.8,27.8,0,0,1,3.333-18.415c2.335-3.99,5.507-7.1,10.136-8.2,5.678-1.347,10.279.778,13.97,5.019C598.84,107.887,600.415,113.8,600.524,120.2Z" transform="translate(1367.937 -841.548)" fill="#fff"/>
    <path id="Path_7" data-name="Path 7" d="M773.013,205.16a21.091,21.091,0,0,1-3.673,12.218c-5.1,7.163-14.215,7.163-19.276-.024a20.959,20.959,0,0,1-3.554-14.137,19.127,19.127,0,0,1,4.127-10.99c5.337-6.492,13.856-6.142,18.719.736A21.151,21.151,0,0,1,773.013,205.16Z" transform="translate(1255.454 -897.919)" fill="#fff"/>
  </g>
</svg>
